<svg xmlns="http://www.w3.org/2000/svg" viewBox="0 0 238.54 71.15"><defs><style>.cls-1{fill:none;stroke:#9ca8c8;stroke-miterlimit:10;stroke-width:2px;}</style></defs><g id="Layer_2" data-name="Layer 2"><g id="DECO"><polyline class="cls-1" points="0.77 1.57 27.1 33.57 53.43 1.57 79.76 33.57 106.09 1.57 132.43 33.57 158.76 1.57 185.09 33.57 211.43 1.57 237.77 33.57"/><polyline class="cls-1" points="0.77 19.57 27.1 51.57 53.43 19.57 79.76 51.57 106.09 19.57 132.43 51.57 158.76 19.57 185.09 51.57 211.43 19.57 237.77 51.57"/><polyline class="cls-1" points="0.77 37.57 27.1 69.57 53.43 37.57 79.76 69.57 106.09 37.57 132.43 69.57 158.76 37.57 185.09 69.57 211.43 37.57 237.77 69.57"/></g></g></svg>